<svg data-v-0dd9719b="" version="1.0" xmlns="http://www.w3.org/2000/svg" xmlns:xlink="http://www.w3.org/1999/xlink" width="100%" height="100%" viewBox="0 0 340.000000 250.000000" preserveAspectRatio="xMidYMid meet" color-interpolation-filters="sRGB" style="margin: auto;"> <rect data-v-0dd9719b="" x="0" y="0" width="100%" height="100%" fill="#fff" fill-opacity="1" class="background"></rect> <rect data-v-0dd9719b="" x="0" y="0" width="100%" height="100%" fill="url(#watermark)" fill-opacity="1" class="watermarklayer"></rect> <g data-v-0dd9719b="" fill="#2bbdc4" class="icon-text-wrapper icon-svg-group iconsvg" transform="translate(46.295005798339844,100.27486228942871)"><g class="iconsvg-imagesvg" transform="translate(0,0)"><g><rect fill="#2bbdc4" fill-opacity="0" stroke-width="2" x="0" y="0" width="60" height="49.450277745726666" class="image-rect"></rect> <svg x="0" y="0" width="60" height="49.450277745726666" filtersec="colorsb3467414695" class="image-svg-svg primary" style="overflow: visible;"><svg xmlns="http://www.w3.org/2000/svg" viewBox="0 0 101.12000274658203 83.33999633789062"><g style="isolation:isolate"><g><path fill="#2bbdc4" d="M50.56 0l50.56 83.34H60.07L30.06 34.03 50.56 0z"></path><path fill="#e71970" d="M50.56 0L0 83.34h41.05l30.01-49.31L50.56 0z" style="mix-blend-mode:multiply"></path></g></g></svg></svg> <!----></g></g> <g transform="translate(67,7.700138092041016)"><g data-gra="path-name" fill-rule="" class="tp-name iconsvg-namesvg"><g transform="scale(1)"><g><path d="M21.07-32.73L29.98-1.97 18.65-0.5 17.28-5.67 12.07-5.67 10.92-0.5-0.73-1.65 8.36-32.09 21.07-32.73ZM13.03-12.66L16.46-12.66 14.72-20.61 13.03-12.66ZM57.25-22.03L57.25-22.03Q57.25-20.25 56.94-18.8 56.63-17.35 55.97-16.14 55.31-14.92 54.26-13.9 53.2-12.87 51.72-11.93L51.72-11.93 57.16-2.24 46.87-0.23 43.35-9.96 40.52-9.87 40.11-0.37 30.28-0.37Q30.4-5.58 30.5-10.74 30.6-15.91 30.74-21.12L30.74-21.12Q30.78-23.75 30.83-26.33 30.88-28.91 31.01-31.54L31.01-31.54Q32.61-32.13 34.17-32.52 35.72-32.91 37.29-33.13 38.85-33.34 40.46-33.42 42.07-33.5 43.77-33.5L43.77-33.5Q46.37-33.5 48.81-32.78 51.24-32.06 53.11-30.62 54.99-29.18 56.12-27.04 57.25-24.89 57.25-22.03ZM47.01-21.3L47.01-21.3Q47.01-22.26 46.75-23.06 46.49-23.86 45.97-24.44 45.46-25.03 44.69-25.36 43.93-25.69 42.9-25.69L42.9-25.69Q42.44-25.69 42.01-25.63 41.57-25.57 41.16-25.46L41.16-25.46 40.79-16.96 41.34-16.96Q42.33-16.96 43.34-17.21 44.36-17.46 45.17-17.99 45.98-18.51 46.5-19.33 47.01-20.16 47.01-21.3ZM58.12-32.18L83.03-32.22 82.8-22.53 75.99-22.26 75.17-1.05 65.52-0.55 64.65-21.76 57.84-21.39 58.12-32.18ZM101.77-32.73L112.28-32.04 103.92-0.23 92.58 0.41 82.3-31.72 93.13-32.73 97.52-13.99 101.77-32.73ZM112.79-31.54L124.94-32.18 123.34-1.05 113.7-0.55 112.79-31.54ZM153.4-8.14L153.4-8.14Q153.4-6.24 152.7-4.87 152-3.5 150.84-2.54 149.67-1.58 148.15-0.97 146.63-0.37 144.99-0.02 143.34 0.32 141.68 0.43 140.03 0.55 138.59 0.55L138.59 0.55Q137.17 0.55 135.65 0.45 134.13 0.34 132.62 0.09 131.11-0.16 129.65-0.58 128.19-1.01 126.89-1.65L126.89-1.65 126.84-31.08Q128.12-31.61 129.56-32.03 131-32.45 132.5-32.74 133.99-33.02 135.48-33.17 136.97-33.32 138.36-33.32L138.36-33.32Q139.98-33.32 141.64-33.12 143.3-32.91 144.83-32.43 146.36-31.95 147.68-31.18 149.01-30.42 150-29.3 151-28.18 151.56-26.69 152.12-25.21 152.12-23.27L152.12-23.27Q152.12-21.99 151.75-20.87 151.39-19.75 150.7-18.85 150.02-17.96 149.03-17.33 148.05-16.71 146.82-16.41L146.82-16.41Q148.3-16.02 149.52-15.27 150.75-14.51 151.6-13.44 152.46-12.36 152.93-11.02 153.4-9.67 153.4-8.14ZM141.79-21.16L141.79-21.16Q141.79-21.83 141.51-22.29 141.24-22.76 140.84-23.06 140.44-23.36 139.97-23.49 139.5-23.63 139.14-23.63L139.14-23.63Q138.68-23.63 138.25-23.49 137.81-23.36 137.4-23.17L137.4-23.17 137.26-18.1Q137.79-18.1 138.57-18.19 139.34-18.28 140.06-18.59 140.78-18.9 141.28-19.51 141.79-20.11 141.79-21.16ZM138.54-13.71L138.54-13.71Q137.88-13.71 137.26-13.58L137.26-13.58 137.17-8.36Q137.51-8.3 137.85-8.24 138.18-8.18 138.5-8.18L138.5-8.18Q138.98-8.18 139.55-8.28 140.12-8.39 140.62-8.7 141.12-9 141.46-9.53 141.79-10.06 141.79-10.92L141.79-10.92Q141.79-11.79 141.46-12.34 141.12-12.89 140.64-13.2 140.17-13.51 139.59-13.61 139.02-13.71 138.54-13.71ZM179.68-18.47L179.68-18.47Q179.68-16.48 179.41-14.49L179.41-14.49Q175.5-14.24 171.64-13.68 167.77-13.12 163.91-12.57L163.91-12.57Q164.5-10.92 165.77-9.94 167.04-8.96 168.8-8.96L168.8-8.96Q169.72-8.96 170.8-9.3 171.89-9.64 172.96-10.16 174.04-10.67 175.02-11.27 176-11.86 176.71-12.34L176.71-12.34 175.61-1.97Q174.72-1.28 173.68-0.8 172.64-0.32 171.52-0.02 170.4 0.27 169.26 0.41 168.12 0.55 167.02 0.55L167.02 0.55Q164.76 0.55 162.88-0.07 161.01-0.69 159.49-1.79 157.97-2.9 156.83-4.41 155.68-5.92 154.93-7.7 154.17-9.48 153.79-11.47 153.4-13.46 153.4-15.5L153.4-15.5Q153.4-17.62 153.79-19.75 154.17-21.87 154.96-23.84 155.75-25.8 156.95-27.48 158.15-29.16 159.75-30.42 161.35-31.68 163.37-32.38 165.4-33.09 167.84-33.09L167.84-33.09Q169.88-33.09 171.56-32.53 173.24-31.97 174.55-30.98 175.86-29.98 176.83-28.61 177.81-27.24 178.43-25.61 179.06-23.97 179.37-22.16 179.68-20.34 179.68-18.47ZM170.54-19.15L170.54-19.65Q170.54-20.29 170.4-20.97 170.26-21.64 169.96-22.19 169.65-22.74 169.14-23.09 168.64-23.45 167.89-23.45L167.89-23.45Q166.97-23.45 166.28-22.96 165.58-22.47 165.08-21.72 164.57-20.98 164.25-20.11 163.93-19.24 163.77-18.51L163.77-18.51 170.54-19.15Z" transform="translate(0.7300000190734863, 33.5)"></path></g> <!----> <!----> <!----> <!----> <!----> <!----> <!----></g></g> <!----></g></g><defs v-gra="od"></defs></svg>